<svg xmlns="http://www.w3.org/2000/svg" version="1.1" xmlns:xlink="http://www.w3.org/1999/xlink" xmlns:svgjs="http://svgjs.com/svgjs" width="1000" height="1000"><svg xmlns="http://www.w3.org/2000/svg" xmlns:xlink="http://www.w3.org/1999/xlink" version="1.1" width="1000" height="1000" viewBox="0 0 1000 1000" xml:space="preserve">
<desc>Created with Fabric.js 5.2.4</desc>
<defs>
</defs>
<rect x="0" y="0" width="100%" height="100%" fill="transparent"></rect>
<g transform="matrix(1 0 0 1 600 150)" id="SvgjsG1010">
<rect style="stroke: none; stroke-width: 1; stroke-dasharray: none; stroke-linecap: butt; stroke-dashoffset: 0; stroke-linejoin: miter; stroke-miterlimit: 4; fill: rgb(255,255,255); fill-rule: nonzero; opacity: 1; visibility: hidden;" vector-effect="non-scaling-stroke" x="-600" y="-150" rx="0" ry="0" width="1200" height="300"></rect>
</g>
<g transform="matrix(0 0 0 0 0 0)" id="SvgjsG1009">
</g>
<g transform="matrix(5.4 0 0 -5.4 1025.64 490.26)" clip-path="url(#CLIPPATH_520)">
<clipPath id="SvgjsClipPath1008">
	<path transform="matrix(1 0 0 1 -51.46 -2.64) translate(-127.56, -70.87)" d="M 0 141.732 L 255.118 141.732 L 255.118 0 L 0 0 Z" stroke-linecap="round"></path>
</clipPath>
<path style="stroke: none; stroke-width: 1; stroke-dasharray: none; stroke-linecap: butt; stroke-dashoffset: 0; stroke-linejoin: miter; stroke-miterlimit: 4; fill: rgb(56,56,56); fill-rule: nonzero; opacity: 1;" vector-effect="non-scaling-stroke" transform=" translate(-3.79, -2.35)" d="M 0 0 L 0 4.658 C 0 7.1930000000000005 1.37 8.563 3.716 8.563 C 6.114000000000001 8.563 7.45 7.1930000000000005 7.536 4.658000000000001 L 5.104 4.658000000000001 C 5.035 5.755 4.624 6.2 3.699 6.2 C 2.963 6.2 2.535 5.72 2.535 4.658 L 2.535 0 C 2.535 -1.028 2.946 -1.507 3.699 -1.507 C 4.641 -1.507 5.069 -1.0619999999999998 5.138 0 L 7.57 0 C 7.519 -2.518 6.131 -3.871 3.699 -3.871 C 1.37 -3.871 0 -2.518 0 0" stroke-linecap="round"></path>
</g>
<g transform="matrix(5.4 0 0 -5.4 1068.69 490.34)" clip-path="url(#CLIPPATH_521)">
<clipPath id="SvgjsClipPath1007">
	<path transform="matrix(1 0 0 1 -59.44 -2.63) translate(-127.56, -70.87)" d="M 0 141.732 L 255.118 141.732 L 255.118 0 L 0 0 Z" stroke-linecap="round"></path>
</clipPath>
<path style="stroke: none; stroke-width: 1; stroke-dasharray: none; stroke-linecap: butt; stroke-dashoffset: 0; stroke-linejoin: miter; stroke-miterlimit: 4; fill: rgb(56,56,56); fill-rule: nonzero; opacity: 1;" vector-effect="non-scaling-stroke" transform=" translate(3.6, 3.68)" d="M 0 0 L -2.346 0 L -2.346 -9.676 L -4.847 -9.676 L -4.847 0 L -7.193 0 L -7.193 2.312 L 0 2.312 Z" stroke-linecap="round"></path>
</g>
<g transform="matrix(5.4 0 0 -5.4 1003.93 567.75)" clip-path="url(#CLIPPATH_522)">
<clipPath id="SvgjsClipPath1006">
	<path transform="matrix(1 0 0 1 -47.43 11.72) translate(-127.56, -70.87)" d="M 0 141.732 L 255.118 141.732 L 255.118 0 L 0 0 Z" stroke-linecap="round"></path>
</clipPath>
<path style="stroke: none; stroke-width: 1; stroke-dasharray: none; stroke-linecap: butt; stroke-dashoffset: 0; stroke-linejoin: miter; stroke-miterlimit: 4; fill: rgb(56,56,56); fill-rule: nonzero; opacity: 1;" vector-effect="non-scaling-stroke" transform=" translate(-0.99, 0.74)" d="M 0 0 L 0 -0.522 L 1.935 -0.522 L 1.935 0 C 1.935 0.754 1.567 1.105 0.951 1.105 C 0.36 1.105 0 0.754 0 0 M 2.501 -1.619 C 2.432 -2.561 1.876 -3.083 0.933 -3.083 C 0.06000000000000005 -3.083 -0.514 -2.5090000000000003 -0.514 -1.4820000000000002 L -0.514 0 C -0.514 1.028 0.06799999999999995 1.601 0.942 1.601 C 1.841 1.601 2.441 1.028 2.441 0 L 2.441 -0.993 L 0 -0.993 L 0 -1.482 C 0 -2.235 0.36 -2.5860000000000003 0.951 -2.5860000000000003 C 1.601 -2.5860000000000003 1.927 -2.2780000000000005 1.995 -1.6190000000000002 z" stroke-linecap="round"></path>
</g>
<g transform="matrix(5.4 0 0 -5.4 1024.48 567.74)" clip-path="url(#CLIPPATH_523)">
<clipPath id="SvgjsClipPath1005">
	<path transform="matrix(1 0 0 1 -51.24 11.72) translate(-127.56, -70.87)" d="M 0 141.732 L 255.118 141.732 L 255.118 0 L 0 0 Z" stroke-linecap="round"></path>
</clipPath>
<path style="stroke: none; stroke-width: 1; stroke-dasharray: none; stroke-linecap: butt; stroke-dashoffset: 0; stroke-linejoin: miter; stroke-miterlimit: 4; fill: rgb(56,56,56); fill-rule: nonzero; opacity: 1;" vector-effect="non-scaling-stroke" transform=" translate(-1.46, -0.74)" d="M 0 0 L 0 1.482 C 0 2.509 0.574 3.083 1.439 3.083 C 2.329 3.083 2.895 2.5090000000000003 2.92 1.4820000000000002 L 2.406 1.4820000000000002 C 2.381 2.235 2.038 2.586 1.439 2.586 C 0.865 2.586 0.514 2.235 0.514 1.482 L 0.514 0 C 0.514 -0.754 0.865 -1.105 1.439 -1.105 C 2.0380000000000003 -1.105 2.3890000000000002 -0.754 2.415 0 L 2.929 0 C 2.903 -1.028 2.329 -1.601 1.439 -1.601 C 0.574 -1.601 0 -1.028 0 0" stroke-linecap="round"></path>
</g>
<g transform="matrix(5.4 0 0 -5.4 1042.01 567.79)" clip-path="url(#CLIPPATH_524)">
<clipPath id="SvgjsClipPath1004">
	<path transform="matrix(1 0 0 1 -54.49 11.73) translate(-127.56, -70.87)" d="M 0 141.732 L 255.118 141.732 L 255.118 0 L 0 0 Z" stroke-linecap="round"></path>
</clipPath>
<path style="stroke: none; stroke-width: 1; stroke-dasharray: none; stroke-linecap: butt; stroke-dashoffset: 0; stroke-linejoin: miter; stroke-miterlimit: 4; fill: rgb(56,56,56); fill-rule: nonzero; opacity: 1;" vector-effect="non-scaling-stroke" transform=" translate(1.37, 1.78)" d="M 0 0 L -1.113 0 L -1.113 -4.025 L -1.619 -4.025 L -1.619 0 L -2.732 0 L -2.732 0.471 L 0 0.471 Z" stroke-linecap="round"></path>
</g>
<g transform="matrix(5.4 0 0 -5.4 1060.46 567.81)" clip-path="url(#CLIPPATH_525)">
<clipPath id="SvgjsClipPath1003">
	<path transform="matrix(1 0 0 1 -57.91 11.73) translate(-127.56, -70.87)" d="M 0 141.732 L 255.118 141.732 L 255.118 0 L 0 0 Z" stroke-linecap="round"></path>
</clipPath>
<path style="stroke: none; stroke-width: 1; stroke-dasharray: none; stroke-linecap: butt; stroke-dashoffset: 0; stroke-linejoin: miter; stroke-miterlimit: 4; fill: rgb(56,56,56); fill-rule: nonzero; opacity: 1;" vector-effect="non-scaling-stroke" transform=" translate(0.88, -0.95)" d="M 0 0 C 0 0.505 -0.317 0.796 -0.968 0.796 L -1.7730000000000001 0.796 L -1.7730000000000001 -0.8140000000000001 L -0.9680000000000001 -0.8140000000000001 C -0.317 -0.814 0 -0.522 0 0 M -1.773 1.276 L -1.0959999999999999 1.276 C -0.5139999999999999 1.276 -0.22299999999999986 1.55 -0.22299999999999986 1.995 C -0.22299999999999986 2.4490000000000003 -0.5139999999999998 2.715 -1.0959999999999999 2.715 L -1.773 2.715 Z M 0.505 0 C 0.505 -0.814 0 -1.293 -0.959 -1.293 L -2.269 -1.293 L -2.269 3.194 L -1.088 3.194 C -0.21400000000000008 3.194 0.2829999999999999 2.7319999999999998 0.2829999999999999 1.9949999999999999 C 0.2829999999999999 1.678 0.10299999999999992 1.319 -0.2310000000000001 1.0879999999999999 C 0.231 0.908 0.505 0.445 0.505 0" stroke-linecap="round"></path>
</g>
<g transform="matrix(5.4 0 0 -5.4 1079.15 567.79)" clip-path="url(#CLIPPATH_526)">
<clipPath id="SvgjsClipPath1002">
	<path transform="matrix(1 0 0 1 -61.38 11.73) translate(-127.56, -70.87)" d="M 0 141.732 L 255.118 141.732 L 255.118 0 L 0 0 Z" stroke-linecap="round"></path>
</clipPath>
<path style="stroke: none; stroke-width: 1; stroke-dasharray: none; stroke-linecap: butt; stroke-dashoffset: 0; stroke-linejoin: miter; stroke-miterlimit: 4; fill: rgb(56,56,56); fill-rule: nonzero; opacity: 1;" vector-effect="non-scaling-stroke" transform=" translate(0.96, -0.98)" d="M 0 0 L 0 0.882 L -0.908 0.882 C -1.5670000000000002 0.882 -1.9180000000000001 0.5740000000000001 -1.9180000000000001 0 C -1.9180000000000001 -0.591 -1.516 -0.873 -0.9340000000000002 -0.873 C -0.36 -0.873 0 -0.514 0 0 M 0.505 1.841 L 0.505 -1.267 L 0.068 -1.267 L 0.026000000000000002 -0.8479999999999999 C -0.18 -1.148 -0.522 -1.3699999999999999 -1.011 -1.3699999999999999 C -1.8329999999999997 -1.3699999999999999 -2.432 -0.8649999999999999 -2.432 0.009000000000000119 C -2.432 0.8740000000000001 -1.876 1.3530000000000002 -0.891 1.3530000000000002 L 0 1.3530000000000002 L 0 1.8330000000000002 C 0 2.492 -0.308 2.843 -0.891 2.843 C -1.405 2.843 -1.756 2.552 -1.79 2.0549999999999997 L -2.295 2.0549999999999997 C -2.261 2.8259999999999996 -1.704 3.3309999999999995 -0.873 3.3309999999999995 C -0.017000000000000015 3.3309999999999995 0.5049999999999999 2.7579999999999996 0.5049999999999999 1.8409999999999995" stroke-linecap="round"></path>
</g>
<g transform="matrix(99.47 0 0 -99.47 544.08 292.63)" clip-path="url(#CLIPPATH_527)">
<clipPath id="SvgjsClipPath1001">
	<path transform="matrix(1 0 0 1 61.26 0.14) translate(-127.56, -70.87)" d="M 0 141.732 L 255.118 141.732 L 255.118 0 L 0 0 Z" stroke-linecap="round"></path>
</clipPath>
<path style="stroke: none; stroke-width: 1; stroke-dasharray: none; stroke-linecap: butt; stroke-dashoffset: 0; stroke-linejoin: miter; stroke-miterlimit: 4; fill: rgb(56,56,56); fill-rule: nonzero; opacity: 1;" vector-effect="non-scaling-stroke" transform=" translate(0.57, 0.9)" d="M 0 0 C 0 0.544 -0.24 0.824 -0.696 0.824 L -1.339 0.824 L -1.339 -0.816 L -0.696 -0.816 C -0.24 -0.816 0 -0.536 0 0 M 1.167 0 C 1.167 -1.191 0.48 -1.895 -0.6799999999999999 -1.895 L -1.167 -1.895 L -1.167 -3.694 L -2.303 -3.694 L -2.303 1.903 L -0.68 1.903 C 0.48 1.903 1.167 1.199 1.167 0" stroke-linecap="round"></path>
</g>
<g transform="matrix(99.47 0 0 -99.47 512.28 840.91)" clip-path="url(#CLIPPATH_528)">
<clipPath id="SvgjsClipPath1000">
	<path transform="matrix(1 0 0 1 61.58 5.65) translate(-127.56, -70.87)" d="M 0 141.732 L 255.118 141.732 L 255.118 0 L 0 0 Z" stroke-linecap="round"></path>
</clipPath>
<path style="stroke: none; stroke-width: 1; stroke-dasharray: none; stroke-linecap: butt; stroke-dashoffset: 0; stroke-linejoin: miter; stroke-miterlimit: 4; fill: rgb(56,56,56); fill-rule: nonzero; opacity: 1;" vector-effect="non-scaling-stroke" transform=" translate(1.46, 0)" d="M 0 0 C 0 -0.804 -0.652 -1.456 -1.456 -1.456 C -2.26 -1.456 -2.912 -0.8039999999999999 -2.912 0 C -2.912 0.804 -2.26 1.456 -1.456 1.456 C -0.652 1.456 0 0.804 0 0" stroke-linecap="round"></path>
</g>
</svg><style>@media (prefers-color-scheme: light) { :root { filter: none; } }
</style></svg>